<mxfile host="app.diagrams.net" modified="2024-06-07T03:34:37.313Z" agent="Mozilla/5.0 (X11; Linux x86_64) AppleWebKit/537.36 (KHTML, like Gecko) Chrome/125.0.0.0 Safari/537.36" version="24.5.1" etag="fHGzduLZ8fafQbbpdZzz" type="github">
  <diagram name="PÃ¡gina-1" id="BHc9U3FUEt3JAUv-D9WD">
    <mxGraphModel>
      <root>
        <mxCell id="0" />
        <mxCell id="1" parent="0" />
      </root>
    </mxGraphModel>
  </diagram>
</mxfile>
